<mxfile host="app.diagrams.net" modified="2023-07-06T11:24:14.647Z" agent="Mozilla/5.0 (Windows NT 10.0; Win64; x64; rv:109.0) Gecko/20100101 Firefox/112.0" etag="YEnC_E2-sgRdx4vVD7UV" version="21.3.7" type="github">
  <diagram id="yPxyJZ8AM_hMuL3Unpa9" name="simple gitflow">
    <mxGraphModel dx="1687" dy="946" grid="1" gridSize="10" guides="1" tooltips="1" connect="1" arrows="1" fold="1" page="1" pageScale="1" pageWidth="1100" pageHeight="850" math="0" shadow="0">
      <root>
        <mxCell id="0" />
        <mxCell id="1" parent="0" />
        <mxCell id="kNyc37dz9Y1JkBd23-l--1" value="" style="edgeStyle=orthogonalEdgeStyle;rounded=0;html=1;jettySize=auto;orthogonalLoop=1;plain-blue;endArrow=none;endFill=0;strokeWidth=4;strokeColor=#000000;" edge="1" parent="1" target="kNyc37dz9Y1JkBd23-l--5">
          <mxGeometry x="234.5" y="260" as="geometry">
            <mxPoint x="230" y="260" as="sourcePoint" />
          </mxGeometry>
        </mxCell>
        <mxCell id="kNyc37dz9Y1JkBd23-l--4" value="" style="edgeStyle=orthogonalEdgeStyle;curved=1;rounded=0;orthogonalLoop=1;jettySize=auto;html=1;endArrow=none;endFill=0;strokeWidth=4;fontFamily=Courier New;fontSize=16;" edge="1" parent="1" source="kNyc37dz9Y1JkBd23-l--5" target="kNyc37dz9Y1JkBd23-l--8">
          <mxGeometry relative="1" as="geometry" />
        </mxCell>
        <mxCell id="kNyc37dz9Y1JkBd23-l--71" style="edgeStyle=orthogonalEdgeStyle;shape=connector;curved=1;rounded=0;orthogonalLoop=1;jettySize=auto;html=1;entryX=0;entryY=0.5;entryDx=0;entryDy=0;entryPerimeter=0;labelBackgroundColor=default;strokeColor=default;strokeWidth=4;fontFamily=Courier New;fontSize=16;fontColor=default;endArrow=none;endFill=0;" edge="1" parent="1" source="kNyc37dz9Y1JkBd23-l--5" target="kNyc37dz9Y1JkBd23-l--38">
          <mxGeometry relative="1" as="geometry">
            <Array as="points">
              <mxPoint x="380" y="260" />
              <mxPoint x="380" y="425" />
            </Array>
          </mxGeometry>
        </mxCell>
        <mxCell id="kNyc37dz9Y1JkBd23-l--5" value="" style="verticalLabelPosition=bottom;verticalAlign=top;html=1;strokeWidth=4;shape=mxgraph.flowchart.on-page_reference;strokeColor=#9673a6;fillColor=#e1d5e7;" vertex="1" parent="1">
          <mxGeometry x="340.62" y="245" width="30" height="30" as="geometry" />
        </mxCell>
        <mxCell id="kNyc37dz9Y1JkBd23-l--57" value="" style="edgeStyle=orthogonalEdgeStyle;shape=connector;curved=1;rounded=0;orthogonalLoop=1;jettySize=auto;html=1;labelBackgroundColor=default;strokeColor=default;strokeWidth=4;fontFamily=Courier New;fontSize=16;fontColor=default;endArrow=none;endFill=0;" edge="1" parent="1" source="kNyc37dz9Y1JkBd23-l--8" target="kNyc37dz9Y1JkBd23-l--53">
          <mxGeometry relative="1" as="geometry" />
        </mxCell>
        <mxCell id="kNyc37dz9Y1JkBd23-l--8" value="" style="verticalLabelPosition=bottom;verticalAlign=top;html=1;strokeWidth=4;shape=mxgraph.flowchart.on-page_reference;plain-blue;gradientColor=none;strokeColor=#000000;" vertex="1" parent="1">
          <mxGeometry x="664.5" y="245" width="30" height="30" as="geometry" />
        </mxCell>
        <mxCell id="kNyc37dz9Y1JkBd23-l--12" value="" style="edgeStyle=orthogonalEdgeStyle;rounded=0;html=1;jettySize=auto;orthogonalLoop=1;strokeWidth=4;endArrow=none;endFill=0;dashed=1;" edge="1" parent="1">
          <mxGeometry x="134.5" y="260" as="geometry">
            <mxPoint x="160" y="260" as="sourcePoint" />
            <mxPoint x="204.5" y="260" as="targetPoint" />
          </mxGeometry>
        </mxCell>
        <mxCell id="kNyc37dz9Y1JkBd23-l--13" value="master" style="text;html=1;strokeColor=#6c8ebf;fillColor=#dae8fc;align=center;verticalAlign=middle;whiteSpace=wrap;overflow=hidden;fontSize=14;fontStyle=1;fontFamily=Courier New;" vertex="1" parent="1">
          <mxGeometry x="100" y="250" width="50" height="20" as="geometry" />
        </mxCell>
        <mxCell id="kNyc37dz9Y1JkBd23-l--14" style="edgeStyle=orthogonalEdgeStyle;curved=1;rounded=0;html=1;exitX=1;exitY=0.5;exitPerimeter=0;entryX=0;entryY=0.5;entryPerimeter=0;endArrow=none;endFill=0;jettySize=auto;orthogonalLoop=1;strokeWidth=4;fontSize=15;" edge="1" parent="1" source="kNyc37dz9Y1JkBd23-l--15" target="kNyc37dz9Y1JkBd23-l--17">
          <mxGeometry relative="1" as="geometry" />
        </mxCell>
        <mxCell id="kNyc37dz9Y1JkBd23-l--15" value="" style="verticalLabelPosition=bottom;verticalAlign=top;html=1;strokeWidth=4;shape=mxgraph.flowchart.on-page_reference;plain-purple;gradientColor=none;strokeColor=#000000;" vertex="1" parent="1">
          <mxGeometry x="433.63" y="345" width="30" height="30" as="geometry" />
        </mxCell>
        <mxCell id="kNyc37dz9Y1JkBd23-l--16" style="edgeStyle=orthogonalEdgeStyle;curved=1;rounded=0;html=1;exitX=1;exitY=0.5;exitPerimeter=0;entryX=0;entryY=0.5;entryPerimeter=0;endArrow=none;endFill=0;jettySize=auto;orthogonalLoop=1;strokeWidth=4;fontSize=15;" edge="1" parent="1" source="kNyc37dz9Y1JkBd23-l--17" target="kNyc37dz9Y1JkBd23-l--19">
          <mxGeometry relative="1" as="geometry" />
        </mxCell>
        <mxCell id="kNyc37dz9Y1JkBd23-l--17" value="" style="verticalLabelPosition=bottom;verticalAlign=top;html=1;strokeWidth=4;shape=mxgraph.flowchart.on-page_reference;plain-purple;gradientColor=none;strokeColor=#000000;" vertex="1" parent="1">
          <mxGeometry x="505.63" y="345" width="30" height="30" as="geometry" />
        </mxCell>
        <mxCell id="kNyc37dz9Y1JkBd23-l--19" value="" style="verticalLabelPosition=bottom;verticalAlign=top;html=1;strokeWidth=4;shape=mxgraph.flowchart.on-page_reference;plain-purple;gradientColor=none;strokeColor=#000000;" vertex="1" parent="1">
          <mxGeometry x="578.63" y="345" width="30" height="30" as="geometry" />
        </mxCell>
        <mxCell id="kNyc37dz9Y1JkBd23-l--20" value="&lt;div&gt;fix/1234&lt;/div&gt;" style="text;html=1;strokeColor=#d6b656;fillColor=#fff2cc;align=left;verticalAlign=middle;whiteSpace=wrap;overflow=hidden;fontSize=14;fontStyle=1;fontFamily=Courier New;" vertex="1" parent="1">
          <mxGeometry x="290" y="350" width="71.62" height="20" as="geometry" />
        </mxCell>
        <mxCell id="kNyc37dz9Y1JkBd23-l--23" value="&lt;div style=&quot;font-size: 13px;&quot;&gt;2023.2.000-SNAPSHOT&lt;/div&gt;&lt;div style=&quot;font-size: 13px;&quot;&gt;&lt;br style=&quot;font-size: 13px;&quot;&gt;&lt;/div&gt;" style="text;html=1;strokeColor=none;fillColor=none;align=center;verticalAlign=middle;whiteSpace=wrap;overflow=hidden;fontSize=13;" vertex="1" parent="1">
          <mxGeometry x="149.5" y="195" width="160" height="50" as="geometry" />
        </mxCell>
        <mxCell id="kNyc37dz9Y1JkBd23-l--30" value="&lt;div style=&quot;font-size: 12px;&quot;&gt;&lt;b&gt;Code freeze&lt;/b&gt; &lt;br style=&quot;font-size: 12px;&quot;&gt;&lt;/div&gt;&lt;div style=&quot;font-size: 12px;&quot;&gt;2023.2.000&lt;/div&gt;&lt;div style=&quot;font-size: 12px;&quot;&gt;&lt;br style=&quot;font-size: 12px;&quot;&gt;&lt;/div&gt;" style="text;html=1;strokeColor=none;fillColor=none;align=center;verticalAlign=middle;whiteSpace=wrap;overflow=hidden;fontSize=12;" vertex="1" parent="1">
          <mxGeometry x="313.31" y="170" width="100" height="80" as="geometry" />
        </mxCell>
        <mxCell id="kNyc37dz9Y1JkBd23-l--33" style="edgeStyle=orthogonalEdgeStyle;curved=1;rounded=0;html=1;entryX=0;entryY=0.5;entryPerimeter=0;endArrow=none;endFill=0;jettySize=auto;orthogonalLoop=1;strokeWidth=4;fontSize=15;entryDx=0;entryDy=0;" edge="1" parent="1" target="kNyc37dz9Y1JkBd23-l--15">
          <mxGeometry relative="1" as="geometry">
            <mxPoint x="370" y="261" as="sourcePoint" />
            <mxPoint x="567" y="340" as="targetPoint" />
          </mxGeometry>
        </mxCell>
        <mxCell id="kNyc37dz9Y1JkBd23-l--35" style="edgeStyle=orthogonalEdgeStyle;curved=1;rounded=0;html=1;entryX=0;entryY=0.5;entryPerimeter=0;endArrow=none;endFill=0;jettySize=auto;orthogonalLoop=1;strokeWidth=4;fontSize=15;entryDx=0;entryDy=0;" edge="1" parent="1" source="kNyc37dz9Y1JkBd23-l--19" target="kNyc37dz9Y1JkBd23-l--8">
          <mxGeometry relative="1" as="geometry">
            <mxPoint x="768.75" y="360" as="sourcePoint" />
            <mxPoint x="810.75" y="280" as="targetPoint" />
          </mxGeometry>
        </mxCell>
        <mxCell id="kNyc37dz9Y1JkBd23-l--36" value="&lt;div style=&quot;font-size: 12px;&quot;&gt;Merge fix/1234 :&lt;br style=&quot;font-size: 12px;&quot;&gt;&lt;/div&gt;&lt;div style=&quot;font-size: 12px;&quot;&gt;2023.2.000.01&lt;/div&gt;&lt;div style=&quot;font-size: 12px;&quot;&gt;&lt;br style=&quot;font-size: 12px;&quot;&gt;&lt;/div&gt;" style="text;html=1;strokeColor=none;fillColor=none;align=center;verticalAlign=middle;whiteSpace=wrap;overflow=hidden;fontSize=12;" vertex="1" parent="1">
          <mxGeometry x="629.5" y="185" width="100" height="50" as="geometry" />
        </mxCell>
        <mxCell id="kNyc37dz9Y1JkBd23-l--37" style="edgeStyle=orthogonalEdgeStyle;curved=1;rounded=0;html=1;exitX=1;exitY=0.5;exitPerimeter=0;entryX=0;entryY=0.5;entryPerimeter=0;endArrow=none;endFill=0;jettySize=auto;orthogonalLoop=1;strokeWidth=4;fontSize=15;" edge="1" parent="1" source="kNyc37dz9Y1JkBd23-l--38" target="kNyc37dz9Y1JkBd23-l--40">
          <mxGeometry relative="1" as="geometry" />
        </mxCell>
        <mxCell id="kNyc37dz9Y1JkBd23-l--38" value="" style="verticalLabelPosition=bottom;verticalAlign=top;html=1;strokeWidth=4;shape=mxgraph.flowchart.on-page_reference;plain-purple;gradientColor=none;strokeColor=#000000;" vertex="1" parent="1">
          <mxGeometry x="475.63" y="410" width="30" height="30" as="geometry" />
        </mxCell>
        <mxCell id="kNyc37dz9Y1JkBd23-l--39" style="edgeStyle=orthogonalEdgeStyle;curved=1;rounded=0;html=1;exitX=1;exitY=0.5;exitPerimeter=0;entryX=0;entryY=0.5;entryPerimeter=0;endArrow=none;endFill=0;jettySize=auto;orthogonalLoop=1;strokeWidth=4;fontSize=15;" edge="1" parent="1" source="kNyc37dz9Y1JkBd23-l--40" target="kNyc37dz9Y1JkBd23-l--41">
          <mxGeometry relative="1" as="geometry" />
        </mxCell>
        <mxCell id="kNyc37dz9Y1JkBd23-l--40" value="" style="verticalLabelPosition=bottom;verticalAlign=top;html=1;strokeWidth=4;shape=mxgraph.flowchart.on-page_reference;plain-purple;gradientColor=none;strokeColor=#000000;" vertex="1" parent="1">
          <mxGeometry x="560" y="410" width="30" height="30" as="geometry" />
        </mxCell>
        <mxCell id="kNyc37dz9Y1JkBd23-l--59" style="edgeStyle=orthogonalEdgeStyle;shape=connector;curved=1;rounded=0;orthogonalLoop=1;jettySize=auto;html=1;entryX=0;entryY=0.5;entryDx=0;entryDy=0;entryPerimeter=0;labelBackgroundColor=default;strokeColor=default;strokeWidth=4;fontFamily=Courier New;fontSize=16;fontColor=default;endArrow=none;endFill=0;" edge="1" parent="1" source="kNyc37dz9Y1JkBd23-l--41" target="kNyc37dz9Y1JkBd23-l--53">
          <mxGeometry relative="1" as="geometry">
            <Array as="points">
              <mxPoint x="741" y="425" />
              <mxPoint x="741" y="260" />
            </Array>
          </mxGeometry>
        </mxCell>
        <mxCell id="kNyc37dz9Y1JkBd23-l--41" value="" style="verticalLabelPosition=bottom;verticalAlign=top;html=1;strokeWidth=4;shape=mxgraph.flowchart.on-page_reference;plain-purple;gradientColor=none;strokeColor=#000000;" vertex="1" parent="1">
          <mxGeometry x="629.5" y="410" width="30" height="30" as="geometry" />
        </mxCell>
        <mxCell id="kNyc37dz9Y1JkBd23-l--42" value="&lt;div&gt;fix/1235&lt;/div&gt;" style="text;html=1;strokeColor=#d6b656;fillColor=#fff2cc;align=left;verticalAlign=middle;whiteSpace=wrap;overflow=hidden;fontSize=14;fontStyle=1;fontFamily=Courier New;" vertex="1" parent="1">
          <mxGeometry x="327.06" y="415" width="72.5" height="20" as="geometry" />
        </mxCell>
        <mxCell id="kNyc37dz9Y1JkBd23-l--62" value="" style="edgeStyle=orthogonalEdgeStyle;shape=connector;curved=1;rounded=0;orthogonalLoop=1;jettySize=auto;html=1;labelBackgroundColor=default;strokeColor=default;strokeWidth=4;fontFamily=Courier New;fontSize=16;fontColor=default;endArrow=none;endFill=0;" edge="1" parent="1" source="kNyc37dz9Y1JkBd23-l--53" target="kNyc37dz9Y1JkBd23-l--61">
          <mxGeometry relative="1" as="geometry" />
        </mxCell>
        <mxCell id="kNyc37dz9Y1JkBd23-l--68" style="edgeStyle=orthogonalEdgeStyle;shape=connector;curved=1;rounded=0;orthogonalLoop=1;jettySize=auto;html=1;entryX=0;entryY=0.5;entryDx=0;entryDy=0;entryPerimeter=0;labelBackgroundColor=default;strokeColor=default;strokeWidth=4;fontFamily=Courier New;fontSize=16;fontColor=default;endArrow=none;endFill=0;" edge="1" parent="1" source="kNyc37dz9Y1JkBd23-l--53" target="kNyc37dz9Y1JkBd23-l--64">
          <mxGeometry relative="1" as="geometry" />
        </mxCell>
        <mxCell id="kNyc37dz9Y1JkBd23-l--53" value="" style="verticalLabelPosition=bottom;verticalAlign=top;html=1;strokeWidth=4;shape=mxgraph.flowchart.on-page_reference;plain-blue;gradientColor=none;strokeColor=#000000;" vertex="1" parent="1">
          <mxGeometry x="781.25" y="245" width="30" height="30" as="geometry" />
        </mxCell>
        <mxCell id="kNyc37dz9Y1JkBd23-l--60" value="&lt;div style=&quot;font-size: 12px;&quot;&gt;Merge fix/1235 :&lt;br style=&quot;font-size: 12px;&quot;&gt;&lt;/div&gt;&lt;div style=&quot;font-size: 12px;&quot;&gt;2023.2.000.02&lt;/div&gt;&lt;div style=&quot;font-size: 12px;&quot;&gt;&lt;br style=&quot;font-size: 12px;&quot;&gt;&lt;/div&gt;" style="text;html=1;strokeColor=none;fillColor=none;align=center;verticalAlign=middle;whiteSpace=wrap;overflow=hidden;fontSize=12;" vertex="1" parent="1">
          <mxGeometry x="749" y="170" width="100" height="80" as="geometry" />
        </mxCell>
        <mxCell id="kNyc37dz9Y1JkBd23-l--83" style="edgeStyle=orthogonalEdgeStyle;shape=connector;curved=1;rounded=0;orthogonalLoop=1;jettySize=auto;html=1;entryX=0;entryY=0.5;entryDx=0;entryDy=0;entryPerimeter=0;labelBackgroundColor=default;strokeColor=default;strokeWidth=4;fontFamily=Courier New;fontSize=16;fontColor=default;endArrow=none;endFill=0;" edge="1" parent="1" source="kNyc37dz9Y1JkBd23-l--61" target="kNyc37dz9Y1JkBd23-l--84">
          <mxGeometry relative="1" as="geometry">
            <mxPoint x="1190" y="110" as="targetPoint" />
          </mxGeometry>
        </mxCell>
        <mxCell id="kNyc37dz9Y1JkBd23-l--105" style="edgeStyle=orthogonalEdgeStyle;shape=connector;curved=1;rounded=0;orthogonalLoop=1;jettySize=auto;html=1;entryX=0;entryY=0.5;entryDx=0;entryDy=0;entryPerimeter=0;labelBackgroundColor=default;strokeColor=default;strokeWidth=4;fontFamily=Courier New;fontSize=16;fontColor=default;endArrow=none;endFill=0;" edge="1" parent="1" source="kNyc37dz9Y1JkBd23-l--61" target="kNyc37dz9Y1JkBd23-l--100">
          <mxGeometry relative="1" as="geometry" />
        </mxCell>
        <mxCell id="kNyc37dz9Y1JkBd23-l--61" value="" style="verticalLabelPosition=bottom;verticalAlign=top;html=1;strokeWidth=4;shape=mxgraph.flowchart.on-page_reference;plain-blue;gradientColor=none;strokeColor=#000000;" vertex="1" parent="1">
          <mxGeometry x="1100" y="245" width="30" height="30" as="geometry" />
        </mxCell>
        <mxCell id="kNyc37dz9Y1JkBd23-l--63" style="edgeStyle=orthogonalEdgeStyle;curved=1;rounded=0;html=1;exitX=1;exitY=0.5;exitPerimeter=0;entryX=0;entryY=0.5;entryPerimeter=0;endArrow=none;endFill=0;jettySize=auto;orthogonalLoop=1;strokeWidth=4;fontSize=15;" edge="1" parent="1" source="kNyc37dz9Y1JkBd23-l--64" target="kNyc37dz9Y1JkBd23-l--66">
          <mxGeometry relative="1" as="geometry" />
        </mxCell>
        <mxCell id="kNyc37dz9Y1JkBd23-l--64" value="" style="verticalLabelPosition=bottom;verticalAlign=top;html=1;strokeWidth=4;shape=mxgraph.flowchart.on-page_reference;plain-purple;gradientColor=none;strokeColor=#000000;" vertex="1" parent="1">
          <mxGeometry x="860" y="450" width="30" height="30" as="geometry" />
        </mxCell>
        <mxCell id="kNyc37dz9Y1JkBd23-l--65" style="edgeStyle=orthogonalEdgeStyle;curved=1;rounded=0;html=1;exitX=1;exitY=0.5;exitPerimeter=0;entryX=0;entryY=0.5;entryPerimeter=0;endArrow=none;endFill=0;jettySize=auto;orthogonalLoop=1;strokeWidth=4;fontSize=15;" edge="1" parent="1" source="kNyc37dz9Y1JkBd23-l--66" target="kNyc37dz9Y1JkBd23-l--67">
          <mxGeometry relative="1" as="geometry" />
        </mxCell>
        <mxCell id="kNyc37dz9Y1JkBd23-l--66" value="" style="verticalLabelPosition=bottom;verticalAlign=top;html=1;strokeWidth=4;shape=mxgraph.flowchart.on-page_reference;plain-purple;gradientColor=none;strokeColor=#000000;" vertex="1" parent="1">
          <mxGeometry x="940" y="450" width="30" height="30" as="geometry" />
        </mxCell>
        <mxCell id="kNyc37dz9Y1JkBd23-l--69" style="edgeStyle=orthogonalEdgeStyle;shape=connector;curved=1;rounded=0;orthogonalLoop=1;jettySize=auto;html=1;entryX=0;entryY=0.5;entryDx=0;entryDy=0;entryPerimeter=0;labelBackgroundColor=default;strokeColor=default;strokeWidth=4;fontFamily=Courier New;fontSize=16;fontColor=default;endArrow=none;endFill=0;" edge="1" parent="1" source="kNyc37dz9Y1JkBd23-l--67" target="kNyc37dz9Y1JkBd23-l--61">
          <mxGeometry relative="1" as="geometry" />
        </mxCell>
        <mxCell id="kNyc37dz9Y1JkBd23-l--67" value="" style="verticalLabelPosition=bottom;verticalAlign=top;html=1;strokeWidth=4;shape=mxgraph.flowchart.on-page_reference;plain-purple;gradientColor=none;strokeColor=#000000;" vertex="1" parent="1">
          <mxGeometry x="1014.37" y="450" width="30" height="30" as="geometry" />
        </mxCell>
        <mxCell id="kNyc37dz9Y1JkBd23-l--70" value="&lt;div style=&quot;font-size: 12px;&quot;&gt;Merge fix/1236 :&lt;br style=&quot;font-size: 12px;&quot;&gt;&lt;/div&gt;&lt;div style=&quot;font-size: 12px;&quot;&gt;2023.2.000.03&lt;/div&gt;&lt;div style=&quot;font-size: 12px;&quot;&gt;&lt;br style=&quot;font-size: 12px;&quot;&gt;&lt;/div&gt;" style="text;html=1;strokeColor=none;fillColor=none;align=center;verticalAlign=middle;whiteSpace=wrap;overflow=hidden;fontSize=12;" vertex="1" parent="1">
          <mxGeometry x="1030" y="170" width="100" height="80" as="geometry" />
        </mxCell>
        <mxCell id="kNyc37dz9Y1JkBd23-l--93" value="" style="edgeStyle=orthogonalEdgeStyle;shape=connector;curved=1;rounded=0;orthogonalLoop=1;jettySize=auto;html=1;labelBackgroundColor=default;strokeColor=default;strokeWidth=4;fontFamily=Courier New;fontSize=16;fontColor=default;endArrow=none;endFill=0;" edge="1" parent="1" source="kNyc37dz9Y1JkBd23-l--82" target="kNyc37dz9Y1JkBd23-l--90">
          <mxGeometry relative="1" as="geometry" />
        </mxCell>
        <mxCell id="kNyc37dz9Y1JkBd23-l--82" value="" style="verticalLabelPosition=bottom;verticalAlign=top;html=1;strokeWidth=4;shape=mxgraph.flowchart.on-page_reference;plain-blue;gradientColor=#EA6B66;strokeColor=#B85450;fillColor=#F8CECC;" vertex="1" parent="1">
          <mxGeometry x="1290" y="95" width="30" height="30" as="geometry" />
        </mxCell>
        <mxCell id="kNyc37dz9Y1JkBd23-l--86" style="edgeStyle=orthogonalEdgeStyle;shape=connector;curved=1;rounded=0;orthogonalLoop=1;jettySize=auto;html=1;entryX=0;entryY=0.5;entryDx=0;entryDy=0;entryPerimeter=0;labelBackgroundColor=default;strokeColor=default;strokeWidth=4;fontFamily=Courier New;fontSize=16;fontColor=default;endArrow=none;endFill=0;" edge="1" parent="1" source="kNyc37dz9Y1JkBd23-l--84" target="kNyc37dz9Y1JkBd23-l--82">
          <mxGeometry relative="1" as="geometry" />
        </mxCell>
        <mxCell id="kNyc37dz9Y1JkBd23-l--84" value="" style="verticalLabelPosition=bottom;verticalAlign=top;html=1;strokeWidth=4;shape=mxgraph.flowchart.on-page_reference;strokeColor=#82b366;fillColor=#d5e8d4;" vertex="1" parent="1">
          <mxGeometry x="1210" y="95" width="30" height="30" as="geometry" />
        </mxCell>
        <mxCell id="kNyc37dz9Y1JkBd23-l--85" value="&lt;div style=&quot;font-size: 12px;&quot;&gt;&lt;b&gt;Release officielle&lt;/b&gt;&lt;br style=&quot;font-size: 12px;&quot;&gt;&lt;/div&gt;&lt;div style=&quot;font-size: 12px;&quot;&gt;2023.2.000&lt;/div&gt;&lt;div style=&quot;font-size: 12px;&quot;&gt;&lt;br style=&quot;font-size: 12px;&quot;&gt;&lt;/div&gt;" style="text;html=1;strokeColor=none;fillColor=none;align=center;verticalAlign=middle;whiteSpace=wrap;overflow=hidden;fontSize=12;" vertex="1" parent="1">
          <mxGeometry x="1172.5" y="30" width="105" height="70" as="geometry" />
        </mxCell>
        <mxCell id="kNyc37dz9Y1JkBd23-l--107" style="edgeStyle=orthogonalEdgeStyle;shape=connector;curved=1;rounded=0;orthogonalLoop=1;jettySize=auto;html=1;entryX=0;entryY=0.5;entryDx=0;entryDy=0;entryPerimeter=0;labelBackgroundColor=default;strokeColor=default;strokeWidth=4;fontFamily=Courier New;fontSize=16;fontColor=default;endArrow=none;endFill=0;" edge="1" parent="1" source="kNyc37dz9Y1JkBd23-l--90" target="kNyc37dz9Y1JkBd23-l--106">
          <mxGeometry relative="1" as="geometry" />
        </mxCell>
        <mxCell id="kNyc37dz9Y1JkBd23-l--90" value="" style="verticalLabelPosition=bottom;verticalAlign=top;html=1;strokeWidth=4;shape=mxgraph.flowchart.on-page_reference;plain-blue;gradientColor=#EA6B66;strokeColor=#B85450;fillColor=#F8CECC;" vertex="1" parent="1">
          <mxGeometry x="1380" y="95" width="30" height="30" as="geometry" />
        </mxCell>
        <mxCell id="kNyc37dz9Y1JkBd23-l--94" value="&lt;div&gt;fix/1236&lt;/div&gt;" style="text;html=1;strokeColor=#d6b656;fillColor=#fff2cc;align=left;verticalAlign=middle;whiteSpace=wrap;overflow=hidden;fontSize=14;fontStyle=1;fontFamily=Courier New;" vertex="1" parent="1">
          <mxGeometry x="731.62" y="455" width="70" height="20" as="geometry" />
        </mxCell>
        <mxCell id="kNyc37dz9Y1JkBd23-l--97" value="version/bdu/v2023.2" style="text;html=1;strokeColor=#b85450;fillColor=#f8cecc;align=left;verticalAlign=middle;whiteSpace=wrap;overflow=hidden;fontSize=14;fontStyle=1;fontFamily=Courier New;" vertex="1" parent="1">
          <mxGeometry x="1005.0000000000001" y="100" width="161.62" height="20" as="geometry" />
        </mxCell>
        <mxCell id="kNyc37dz9Y1JkBd23-l--98" value="Hotfix" style="text;html=1;strokeColor=none;fillColor=none;align=center;verticalAlign=middle;whiteSpace=wrap;overflow=hidden;fontSize=12;" vertex="1" parent="1">
          <mxGeometry x="1255" y="30" width="100" height="60" as="geometry" />
        </mxCell>
        <mxCell id="kNyc37dz9Y1JkBd23-l--99" value="&lt;div style=&quot;font-size: 12px;&quot;&gt;Hotfix&lt;/div&gt;" style="text;html=1;strokeColor=none;fillColor=none;align=center;verticalAlign=middle;whiteSpace=wrap;overflow=hidden;fontSize=12;" vertex="1" parent="1">
          <mxGeometry x="1345" y="30" width="100" height="60" as="geometry" />
        </mxCell>
        <mxCell id="kNyc37dz9Y1JkBd23-l--123" style="edgeStyle=orthogonalEdgeStyle;shape=connector;curved=1;rounded=0;orthogonalLoop=1;jettySize=auto;html=1;labelBackgroundColor=default;strokeColor=default;strokeWidth=4;fontFamily=Courier New;fontSize=16;fontColor=default;endArrow=none;endFill=0;" edge="1" parent="1" source="kNyc37dz9Y1JkBd23-l--100" target="kNyc37dz9Y1JkBd23-l--109">
          <mxGeometry relative="1" as="geometry" />
        </mxCell>
        <mxCell id="kNyc37dz9Y1JkBd23-l--152" style="edgeStyle=orthogonalEdgeStyle;shape=connector;curved=1;rounded=0;orthogonalLoop=1;jettySize=auto;html=1;entryX=0;entryY=0.5;entryDx=0;entryDy=0;entryPerimeter=0;labelBackgroundColor=default;strokeColor=default;strokeWidth=4;fontFamily=Courier New;fontSize=16;fontColor=default;endArrow=none;endFill=0;" edge="1" parent="1" source="kNyc37dz9Y1JkBd23-l--100" target="kNyc37dz9Y1JkBd23-l--113">
          <mxGeometry relative="1" as="geometry" />
        </mxCell>
        <mxCell id="kNyc37dz9Y1JkBd23-l--100" value="" style="verticalLabelPosition=bottom;verticalAlign=top;html=1;strokeWidth=4;shape=mxgraph.flowchart.on-page_reference;plain-blue;gradientColor=none;strokeColor=#000000;" vertex="1" parent="1">
          <mxGeometry x="1210" y="245" width="30" height="30" as="geometry" />
        </mxCell>
        <mxCell id="kNyc37dz9Y1JkBd23-l--104" value="&lt;div style=&quot;font-size: 12px;&quot;&gt;&lt;b&gt;Démarrage 2023.3&lt;/b&gt;&lt;br style=&quot;font-size: 12px;&quot;&gt;&lt;/div&gt;&lt;div style=&quot;font-size: 12px;&quot;&gt;2023.3.000-SNAPSHOT&lt;/div&gt;&lt;div style=&quot;font-size: 12px;&quot;&gt;&lt;br style=&quot;font-size: 12px;&quot;&gt;&lt;/div&gt;" style="text;html=1;strokeColor=none;fillColor=none;align=center;verticalAlign=middle;whiteSpace=wrap;overflow=hidden;fontSize=12;" vertex="1" parent="1">
          <mxGeometry x="1172.5" y="185" width="155" height="40" as="geometry" />
        </mxCell>
        <mxCell id="kNyc37dz9Y1JkBd23-l--128" style="edgeStyle=orthogonalEdgeStyle;shape=connector;curved=1;rounded=0;orthogonalLoop=1;jettySize=auto;html=1;entryX=0;entryY=0.5;entryDx=0;entryDy=0;entryPerimeter=0;labelBackgroundColor=default;strokeColor=default;strokeWidth=4;fontFamily=Courier New;fontSize=16;fontColor=default;endArrow=none;endFill=0;" edge="1" parent="1" source="kNyc37dz9Y1JkBd23-l--106" target="kNyc37dz9Y1JkBd23-l--124">
          <mxGeometry relative="1" as="geometry" />
        </mxCell>
        <mxCell id="kNyc37dz9Y1JkBd23-l--106" value="" style="verticalLabelPosition=bottom;verticalAlign=top;html=1;strokeWidth=4;shape=mxgraph.flowchart.on-page_reference;strokeColor=#82b366;fillColor=#d5e8d4;" vertex="1" parent="1">
          <mxGeometry x="1480" y="95" width="30" height="30" as="geometry" />
        </mxCell>
        <mxCell id="kNyc37dz9Y1JkBd23-l--108" value="&lt;div style=&quot;font-size: 12px;&quot;&gt;&lt;b&gt;Release HF1 &lt;/b&gt;&lt;br style=&quot;font-size: 12px;&quot;&gt;&lt;/div&gt;&lt;div style=&quot;font-size: 12px;&quot;&gt;2023.2.001&lt;/div&gt;" style="text;html=1;strokeColor=none;fillColor=none;align=center;verticalAlign=middle;whiteSpace=wrap;overflow=hidden;fontSize=12;" vertex="1" parent="1">
          <mxGeometry x="1445" y="30" width="100" height="60" as="geometry" />
        </mxCell>
        <mxCell id="kNyc37dz9Y1JkBd23-l--127" style="edgeStyle=orthogonalEdgeStyle;shape=connector;curved=1;rounded=0;orthogonalLoop=1;jettySize=auto;html=1;entryX=0;entryY=0.5;entryDx=0;entryDy=0;entryPerimeter=0;labelBackgroundColor=default;strokeColor=default;strokeWidth=4;fontFamily=Courier New;fontSize=16;fontColor=default;endArrow=none;endFill=0;" edge="1" parent="1" source="kNyc37dz9Y1JkBd23-l--109" target="kNyc37dz9Y1JkBd23-l--124">
          <mxGeometry relative="1" as="geometry" />
        </mxCell>
        <mxCell id="kNyc37dz9Y1JkBd23-l--109" value="" style="verticalLabelPosition=bottom;verticalAlign=top;html=1;strokeWidth=4;shape=mxgraph.flowchart.on-page_reference;plain-blue;gradientColor=none;strokeColor=#000000;" vertex="1" parent="1">
          <mxGeometry x="1532.5" y="245" width="30" height="30" as="geometry" />
        </mxCell>
        <mxCell id="kNyc37dz9Y1JkBd23-l--110" style="edgeStyle=orthogonalEdgeStyle;curved=1;rounded=0;html=1;exitX=1;exitY=0.5;exitPerimeter=0;entryX=0;entryY=0.5;entryPerimeter=0;endArrow=none;endFill=0;jettySize=auto;orthogonalLoop=1;strokeWidth=4;fontSize=15;" edge="1" parent="1" source="kNyc37dz9Y1JkBd23-l--111" target="kNyc37dz9Y1JkBd23-l--113">
          <mxGeometry relative="1" as="geometry" />
        </mxCell>
        <mxCell id="kNyc37dz9Y1JkBd23-l--111" value="" style="verticalLabelPosition=bottom;verticalAlign=top;html=1;strokeWidth=4;shape=mxgraph.flowchart.on-page_reference;plain-purple;gradientColor=none;strokeColor=#000000;" vertex="1" parent="1">
          <mxGeometry x="960" y="660" width="30" height="30" as="geometry" />
        </mxCell>
        <mxCell id="kNyc37dz9Y1JkBd23-l--113" value="" style="verticalLabelPosition=bottom;verticalAlign=top;html=1;strokeWidth=4;shape=mxgraph.flowchart.on-page_reference;plain-purple;gradientColor=none;strokeColor=#000000;" vertex="1" parent="1">
          <mxGeometry x="1370" y="660" width="30" height="30" as="geometry" />
        </mxCell>
        <mxCell id="kNyc37dz9Y1JkBd23-l--117" style="edgeStyle=orthogonalEdgeStyle;shape=connector;curved=1;rounded=0;orthogonalLoop=1;jettySize=auto;html=1;entryX=0;entryY=0.5;entryDx=0;entryDy=0;entryPerimeter=0;labelBackgroundColor=default;strokeColor=default;strokeWidth=4;fontFamily=Courier New;fontSize=16;fontColor=default;endArrow=none;endFill=0;exitX=1;exitY=0.5;exitDx=0;exitDy=0;exitPerimeter=0;" edge="1" parent="1" source="kNyc37dz9Y1JkBd23-l--113" target="kNyc37dz9Y1JkBd23-l--109">
          <mxGeometry relative="1" as="geometry">
            <mxPoint x="1437.5" y="675.0588235294119" as="sourcePoint" />
          </mxGeometry>
        </mxCell>
        <mxCell id="kNyc37dz9Y1JkBd23-l--118" value="&lt;div&gt;Merge feat/1237&lt;/div&gt;&lt;div&gt;2023.3.000-SNAPSHOT&lt;br&gt;&lt;/div&gt;" style="text;html=1;strokeColor=none;fillColor=none;align=center;verticalAlign=middle;whiteSpace=wrap;overflow=hidden;fontSize=12;" vertex="1" parent="1">
          <mxGeometry x="1457.5" y="185" width="155" height="40" as="geometry" />
        </mxCell>
        <mxCell id="kNyc37dz9Y1JkBd23-l--131" style="edgeStyle=orthogonalEdgeStyle;shape=connector;curved=1;rounded=0;orthogonalLoop=1;jettySize=auto;html=1;labelBackgroundColor=default;strokeColor=default;strokeWidth=4;fontFamily=Courier New;fontSize=16;fontColor=default;endArrow=none;endFill=0;dashed=1;" edge="1" parent="1" source="kNyc37dz9Y1JkBd23-l--124" target="kNyc37dz9Y1JkBd23-l--130">
          <mxGeometry relative="1" as="geometry" />
        </mxCell>
        <mxCell id="kNyc37dz9Y1JkBd23-l--124" value="" style="verticalLabelPosition=bottom;verticalAlign=top;html=1;strokeWidth=4;shape=mxgraph.flowchart.on-page_reference;plain-blue;gradientColor=none;strokeColor=#000000;" vertex="1" parent="1">
          <mxGeometry x="1700" y="245" width="30" height="30" as="geometry" />
        </mxCell>
        <mxCell id="kNyc37dz9Y1JkBd23-l--129" value="&lt;div&gt;Report HF1&lt;/div&gt;&lt;div&gt;2023.3.000-SNAPSHOT&lt;br&gt;&lt;/div&gt;" style="text;html=1;strokeColor=none;fillColor=none;align=center;verticalAlign=middle;whiteSpace=wrap;overflow=hidden;fontSize=12;" vertex="1" parent="1">
          <mxGeometry x="1625" y="185" width="155" height="40" as="geometry" />
        </mxCell>
        <mxCell id="kNyc37dz9Y1JkBd23-l--174" style="edgeStyle=orthogonalEdgeStyle;shape=connector;curved=1;rounded=0;orthogonalLoop=1;jettySize=auto;html=1;entryX=0;entryY=0.5;entryDx=0;entryDy=0;entryPerimeter=0;labelBackgroundColor=default;strokeColor=default;strokeWidth=4;fontFamily=Courier New;fontSize=16;fontColor=default;endArrow=none;endFill=0;" edge="1" parent="1" source="kNyc37dz9Y1JkBd23-l--130" target="kNyc37dz9Y1JkBd23-l--171">
          <mxGeometry relative="1" as="geometry" />
        </mxCell>
        <mxCell id="kNyc37dz9Y1JkBd23-l--130" value="" style="verticalLabelPosition=bottom;verticalAlign=top;html=1;strokeWidth=4;shape=mxgraph.flowchart.on-page_reference;plain-blue;gradientColor=none;strokeColor=#000000;fontFamily=Courier New;fontSize=16;fontColor=default;" vertex="1" parent="1">
          <mxGeometry x="1860" y="245" width="30" height="30" as="geometry" />
        </mxCell>
        <mxCell id="kNyc37dz9Y1JkBd23-l--132" value="..." style="text;html=1;strokeColor=none;fillColor=none;align=center;verticalAlign=middle;whiteSpace=wrap;overflow=hidden;fontSize=14;dashed=1;" vertex="1" parent="1">
          <mxGeometry x="1797.5" y="195" width="155" height="40" as="geometry" />
        </mxCell>
        <mxCell id="kNyc37dz9Y1JkBd23-l--136" value="Le fait d&#39;incrémenter le numéro de version permet de faire des builds dédiés à chaque bugfix" style="text;strokeColor=none;fillColor=none;html=1;align=center;verticalAlign=middle;whiteSpace=wrap;rounded=0;fontSize=13;fontFamily=Helvetica;fontColor=default;fontStyle=1" vertex="1" parent="1">
          <mxGeometry x="560.63" y="140" width="379.37" height="30" as="geometry" />
        </mxCell>
        <mxCell id="kNyc37dz9Y1JkBd23-l--139" value="Les bugfix suivants peuvent profiter au plus tôt des bugfix précédents en repartant sur le dernier comit de la branche master. Cela permet d&#39;éviter au plus tôt les conflits potentiels lors du merge" style="text;strokeColor=none;fillColor=none;html=1;align=center;verticalAlign=middle;whiteSpace=wrap;rounded=0;fontSize=13;fontFamily=Helvetica;fontColor=default;fontStyle=1" vertex="1" parent="1">
          <mxGeometry x="849" y="500" width="379.37" height="30" as="geometry" />
        </mxCell>
        <mxCell id="kNyc37dz9Y1JkBd23-l--140" value="Les features dédiées à la version 2023.3 ne peuvent être mergées en master qu&#39;une fois le release officielle faite (création de la branche de version) et passage du master en 2023.3.000-SNAPSHOT.&lt;br&gt;Si le dev avait commencé avant la release officielle, il faudra penser à bien merger à nouveau la branche master dans la branche de feature avant de faire la certif" style="text;strokeColor=none;fillColor=none;html=1;align=center;verticalAlign=middle;whiteSpace=wrap;rounded=0;fontSize=13;fontFamily=Helvetica;fontColor=default;fontStyle=1" vertex="1" parent="1">
          <mxGeometry x="950" y="740" width="469.69" height="30" as="geometry" />
        </mxCell>
        <mxCell id="kNyc37dz9Y1JkBd23-l--156" value="&lt;div style=&quot;font-size: 12px;&quot;&gt;&amp;nbsp;&lt;br style=&quot;font-size: 12px;&quot;&gt;&lt;/div&gt;&lt;div style=&quot;font-size: 12px;&quot;&gt;2023.2.000_fix_1234-SNAPSHOT&lt;br&gt;&lt;/div&gt;&lt;div style=&quot;font-size: 12px;&quot;&gt;&lt;br style=&quot;font-size: 12px;&quot;&gt;&lt;/div&gt;" style="text;html=1;strokeColor=none;fillColor=none;align=center;verticalAlign=middle;whiteSpace=wrap;overflow=hidden;fontSize=12;" vertex="1" parent="1">
          <mxGeometry x="418.44" y="285" width="204.37" height="80" as="geometry" />
        </mxCell>
        <mxCell id="kNyc37dz9Y1JkBd23-l--157" value="&lt;div style=&quot;font-size: 12px;&quot;&gt;&amp;nbsp;&lt;br style=&quot;font-size: 12px;&quot;&gt;&lt;/div&gt;&lt;div style=&quot;font-size: 12px;&quot;&gt;2023.2.000_fix_1235-SNAPSHOT&lt;br&gt;&lt;/div&gt;&lt;div style=&quot;font-size: 12px;&quot;&gt;&lt;br style=&quot;font-size: 12px;&quot;&gt;&lt;/div&gt;" style="text;html=1;strokeColor=none;fillColor=none;align=center;verticalAlign=middle;whiteSpace=wrap;overflow=hidden;fontSize=12;" vertex="1" parent="1">
          <mxGeometry x="475.63" y="355" width="204.37" height="80" as="geometry" />
        </mxCell>
        <mxCell id="kNyc37dz9Y1JkBd23-l--158" value="&lt;div style=&quot;font-size: 12px;&quot;&gt;&amp;nbsp;&lt;br style=&quot;font-size: 12px;&quot;&gt;&lt;/div&gt;&lt;div style=&quot;font-size: 12px;&quot;&gt;2023.2.000.02_fix_1236-SNAPSHOT&lt;br&gt;&lt;/div&gt;&lt;div style=&quot;font-size: 12px;&quot;&gt;&lt;br style=&quot;font-size: 12px;&quot;&gt;&lt;/div&gt;" style="text;html=1;strokeColor=none;fillColor=none;align=center;verticalAlign=middle;whiteSpace=wrap;overflow=hidden;fontSize=12;" vertex="1" parent="1">
          <mxGeometry x="852.81" y="410" width="204.37" height="40" as="geometry" />
        </mxCell>
        <mxCell id="kNyc37dz9Y1JkBd23-l--160" value="&lt;div style=&quot;font-size: 12px;&quot;&gt;&amp;nbsp;&lt;br style=&quot;font-size: 12px;&quot;&gt;&lt;/div&gt;&lt;div style=&quot;font-size: 12px;&quot;&gt;2023.2.000.02_feat_1237-SNAPSHOT&lt;br&gt;&lt;/div&gt;&lt;div style=&quot;font-size: 12px;&quot;&gt;&lt;br style=&quot;font-size: 12px;&quot;&gt;&lt;/div&gt;" style="text;html=1;strokeColor=none;fillColor=none;align=center;verticalAlign=middle;whiteSpace=wrap;overflow=hidden;fontSize=12;" vertex="1" parent="1">
          <mxGeometry x="902.81" y="610" width="227.19" height="40" as="geometry" />
        </mxCell>
        <mxCell id="kNyc37dz9Y1JkBd23-l--165" value="" style="edgeStyle=orthogonalEdgeStyle;shape=connector;curved=1;rounded=0;orthogonalLoop=1;jettySize=auto;html=1;entryX=0;entryY=0.5;entryDx=0;entryDy=0;entryPerimeter=0;labelBackgroundColor=default;strokeColor=default;strokeWidth=4;fontFamily=Courier New;fontSize=16;fontColor=default;endArrow=none;endFill=0;" edge="1" parent="1" source="kNyc37dz9Y1JkBd23-l--53" target="kNyc37dz9Y1JkBd23-l--111">
          <mxGeometry relative="1" as="geometry">
            <mxPoint x="800" y="275" as="sourcePoint" />
            <mxPoint x="960" y="675" as="targetPoint" />
            <Array as="points">
              <mxPoint x="820" y="260" />
              <mxPoint x="820" y="675" />
            </Array>
          </mxGeometry>
        </mxCell>
        <mxCell id="kNyc37dz9Y1JkBd23-l--115" value="&lt;div&gt;feat/1237&lt;/div&gt;" style="text;html=1;strokeColor=#d6b656;fillColor=#fff2cc;align=left;verticalAlign=middle;whiteSpace=wrap;overflow=hidden;fontSize=14;fontStyle=1;fontFamily=Courier New;" vertex="1" parent="1">
          <mxGeometry x="801.62" y="665" width="75" height="20" as="geometry" />
        </mxCell>
        <mxCell id="kNyc37dz9Y1JkBd23-l--167" value="feature dédiée à la 2023.3 mais dont le développement a déjà commencé sur la 2023.2 " style="text;strokeColor=none;fillColor=none;html=1;align=center;verticalAlign=middle;whiteSpace=wrap;rounded=0;fontSize=13;fontFamily=Helvetica;fontColor=default;fontStyle=2" vertex="1" parent="1">
          <mxGeometry x="781.25" y="700" width="130" height="90" as="geometry" />
        </mxCell>
        <mxCell id="kNyc37dz9Y1JkBd23-l--168" value="Merge du master avant certif" style="text;strokeColor=none;fillColor=none;html=1;align=center;verticalAlign=middle;whiteSpace=wrap;rounded=0;fontSize=13;fontFamily=Helvetica;fontColor=default;fontStyle=2" vertex="1" parent="1">
          <mxGeometry x="1320" y="570" width="130" height="90" as="geometry" />
        </mxCell>
        <mxCell id="kNyc37dz9Y1JkBd23-l--169" value="Merge sur master une fois certif ok" style="text;strokeColor=none;fillColor=none;html=1;align=center;verticalAlign=middle;whiteSpace=wrap;rounded=0;fontSize=13;fontFamily=Helvetica;fontColor=default;fontStyle=2" vertex="1" parent="1">
          <mxGeometry x="1470" y="370" width="130" height="90" as="geometry" />
        </mxCell>
        <mxCell id="kNyc37dz9Y1JkBd23-l--170" value="Reports de maintenance" style="text;strokeColor=none;fillColor=none;html=1;align=center;verticalAlign=middle;whiteSpace=wrap;rounded=0;fontSize=13;fontFamily=Helvetica;fontColor=default;fontStyle=2" vertex="1" parent="1">
          <mxGeometry x="1580" y="90" width="130" height="90" as="geometry" />
        </mxCell>
        <mxCell id="kNyc37dz9Y1JkBd23-l--171" value="" style="verticalLabelPosition=bottom;verticalAlign=top;html=1;strokeWidth=4;shape=mxgraph.flowchart.on-page_reference;strokeColor=#9673a6;fontFamily=Courier New;fontSize=16;fillColor=#e1d5e7;" vertex="1" parent="1">
          <mxGeometry x="1940" y="245" width="30" height="30" as="geometry" />
        </mxCell>
        <mxCell id="kNyc37dz9Y1JkBd23-l--175" value="&lt;div style=&quot;font-size: 12px;&quot;&gt;&lt;b&gt;Code freeze&lt;/b&gt; &lt;br style=&quot;font-size: 12px;&quot;&gt;&lt;/div&gt;&lt;div style=&quot;font-size: 12px;&quot;&gt;2023.3.000&lt;/div&gt;&lt;div style=&quot;font-size: 12px;&quot;&gt;&lt;br style=&quot;font-size: 12px;&quot;&gt;&lt;/div&gt;" style="text;html=1;strokeColor=none;fillColor=none;align=center;verticalAlign=middle;whiteSpace=wrap;overflow=hidden;fontSize=12;" vertex="1" parent="1">
          <mxGeometry x="1905" y="182.5" width="100" height="55" as="geometry" />
        </mxCell>
        <mxCell id="kNyc37dz9Y1JkBd23-l--176" value="" style="verticalLabelPosition=bottom;verticalAlign=top;html=1;strokeWidth=4;shape=mxgraph.flowchart.on-page_reference;plain-blue;gradientColor=none;strokeColor=#000000;" vertex="1" parent="1">
          <mxGeometry x="200" y="245" width="30" height="30" as="geometry" />
        </mxCell>
      </root>
    </mxGraphModel>
  </diagram>
</mxfile>
